<svg xmlns="http://www.w3.org/2000/svg" xmlns:xlink="http://www.w3.org/1999/xlink" width="500" zoomAndPan="magnify" viewBox="0 0 375 187.499995" height="250" preserveAspectRatio="xMidYMid meet" version="1.0"><defs><g/><clipPath id="8b9daaa756"><path d="M 246.03125 57.824219 L 363.75 57.824219 L 363.75 71.332031 L 246.03125 71.332031 Z M 246.03125 57.824219 " clip-rule="nonzero"/></clipPath></defs><g fill="#000000" fill-opacity="1"><g transform="translate(5.55008, 84.816538)"><g><path d="M 43.21875 -41.15625 L 43.21875 -32.9375 L 10.296875 -32.9375 L 10.296875 -24.703125 L 34.984375 -24.703125 C 36.492188 -24.703125 37.875 -24.332031 39.125 -23.59375 C 40.382812 -22.851562 41.378906 -21.859375 42.109375 -20.609375 C 42.847656 -19.359375 43.21875 -17.976562 43.21875 -16.46875 L 43.21875 -8.234375 C 43.21875 -6.722656 42.847656 -5.34375 42.109375 -4.09375 C 41.378906 -2.84375 40.382812 -1.847656 39.125 -1.109375 C 37.875 -0.367188 36.492188 0 34.984375 0 L 2.0625 0 L 2.0625 -8.234375 L 34.984375 -8.234375 L 34.984375 -16.46875 L 10.296875 -16.46875 C 8.785156 -16.46875 7.398438 -16.832031 6.140625 -17.5625 C 4.890625 -18.300781 3.894531 -19.296875 3.15625 -20.546875 C 2.425781 -21.804688 2.0625 -23.191406 2.0625 -24.703125 L 2.0625 -32.9375 C 2.0625 -34.4375 2.425781 -35.8125 3.15625 -37.0625 C 3.894531 -38.320312 4.890625 -39.316406 6.140625 -40.046875 C 7.398438 -40.785156 8.785156 -41.15625 10.296875 -41.15625 Z M 43.21875 -41.15625 "/></g></g></g><g fill="#000000" fill-opacity="1"><g transform="translate(50.831734, 84.816538)"><g><path d="M 34.984375 0 L 10.296875 0 C 8.785156 0 7.398438 -0.367188 6.140625 -1.109375 C 4.890625 -1.847656 3.894531 -2.84375 3.15625 -4.09375 C 2.425781 -5.34375 2.0625 -6.722656 2.0625 -8.234375 L 2.0625 -41.15625 L 10.296875 -41.15625 L 10.296875 -8.234375 L 34.984375 -8.234375 L 34.984375 -41.15625 L 43.21875 -41.15625 L 43.21875 -8.234375 C 43.21875 -6.722656 42.847656 -5.34375 42.109375 -4.09375 C 41.378906 -2.84375 40.382812 -1.847656 39.125 -1.109375 C 37.875 -0.367188 36.492188 0 34.984375 0 Z M 34.984375 0 "/></g></g></g><g fill="#000000" fill-opacity="1"><g transform="translate(96.113387, 84.816538)"><g><path d="M 34.984375 -41.15625 C 36.492188 -41.15625 37.875 -40.785156 39.125 -40.046875 C 40.382812 -39.316406 41.378906 -38.320312 42.109375 -37.0625 C 42.847656 -35.8125 43.21875 -34.4375 43.21875 -32.9375 L 43.21875 -24.703125 C 43.21875 -23.191406 42.847656 -21.804688 42.109375 -20.546875 C 41.378906 -19.296875 40.382812 -18.300781 39.125 -17.5625 C 37.875 -16.832031 36.492188 -16.46875 34.984375 -16.46875 L 10.296875 -16.46875 L 10.296875 0 L 2.0625 0 L 2.0625 -41.15625 Z M 10.296875 -24.703125 L 34.984375 -24.703125 L 34.984375 -32.9375 L 10.296875 -32.9375 Z M 10.296875 -24.703125 "/></g></g></g><g fill="#000000" fill-opacity="1"><g transform="translate(141.395041, 84.816538)"><g><path d="M 43.21875 -41.15625 L 43.21875 -32.9375 L 10.296875 -32.9375 L 10.296875 -24.703125 L 43.21875 -24.703125 L 43.21875 -16.46875 L 10.296875 -16.46875 L 10.296875 -8.234375 L 43.21875 -8.234375 L 43.21875 0 L 10.296875 0 C 8.785156 0 7.398438 -0.367188 6.140625 -1.109375 C 4.890625 -1.847656 3.894531 -2.84375 3.15625 -4.09375 C 2.425781 -5.34375 2.0625 -6.722656 2.0625 -8.234375 L 2.0625 -32.9375 C 2.0625 -34.4375 2.425781 -35.8125 3.15625 -37.0625 C 3.894531 -38.320312 4.890625 -39.316406 6.140625 -40.046875 C 7.398438 -40.785156 8.785156 -41.15625 10.296875 -41.15625 Z M 43.21875 -41.15625 "/></g></g></g><g fill="#000000" fill-opacity="1"><g transform="translate(186.676694, 84.816538)"><g><path d="M 43.21875 -32.9375 L 43.21875 -24.703125 C 43.21875 -23.191406 42.847656 -21.804688 42.109375 -20.546875 C 41.378906 -19.296875 40.382812 -18.300781 39.125 -17.5625 C 37.875 -16.832031 36.492188 -16.46875 34.984375 -16.46875 L 26.75 -16.46875 L 34.984375 -8.234375 L 43.21875 -8.234375 L 43.21875 0 L 33.34375 0 C 32.175781 0 31.179688 -0.410156 30.359375 -1.234375 L 15.125 -16.46875 L 10.296875 -16.46875 L 10.296875 0 L 2.0625 0 L 2.0625 -41.15625 L 34.984375 -41.15625 C 36.492188 -41.15625 37.875 -40.785156 39.125 -40.046875 C 40.382812 -39.316406 41.378906 -38.320312 42.109375 -37.0625 C 42.847656 -35.8125 43.21875 -34.4375 43.21875 -32.9375 Z M 34.984375 -32.9375 L 10.296875 -32.9375 L 10.296875 -24.703125 L 34.984375 -24.703125 Z M 34.984375 -32.9375 "/></g></g></g><g fill="#000000" fill-opacity="1"><g transform="translate(5.55008, 142.710755)"><g><path d="M 34.984375 0 L 10.296875 0 C 8.785156 0 7.398438 -0.367188 6.140625 -1.109375 C 4.890625 -1.847656 3.894531 -2.84375 3.15625 -4.09375 C 2.425781 -5.34375 2.0625 -6.722656 2.0625 -8.234375 L 2.0625 -32.9375 C 2.0625 -34.4375 2.425781 -35.8125 3.15625 -37.0625 C 3.894531 -38.320312 4.890625 -39.316406 6.140625 -40.046875 C 7.398438 -40.785156 8.785156 -41.15625 10.296875 -41.15625 L 34.984375 -41.15625 C 36.492188 -41.15625 37.875 -40.785156 39.125 -40.046875 C 40.382812 -39.316406 41.378906 -38.320312 42.109375 -37.0625 C 42.847656 -35.8125 43.21875 -34.4375 43.21875 -32.9375 L 43.21875 -8.234375 C 43.21875 -6.753906 42.847656 -5.390625 42.109375 -4.140625 C 41.378906 -2.890625 40.394531 -1.882812 39.15625 -1.125 C 37.914062 -0.375 36.523438 0 34.984375 0 Z M 10.296875 -32.9375 L 10.296875 -8.234375 L 34.984375 -8.234375 L 34.984375 -32.9375 Z M 10.296875 -32.9375 "/></g></g></g><g fill="#000000" fill-opacity="1"><g transform="translate(50.831734, 142.710755)"><g><path d="M 34.984375 -41.15625 C 36.492188 -41.15625 37.875 -40.785156 39.125 -40.046875 C 40.382812 -39.316406 41.378906 -38.320312 42.109375 -37.0625 C 42.847656 -35.8125 43.21875 -34.4375 43.21875 -32.9375 L 43.21875 -24.703125 C 43.21875 -23.191406 42.847656 -21.804688 42.109375 -20.546875 C 41.378906 -19.296875 40.382812 -18.300781 39.125 -17.5625 C 37.875 -16.832031 36.492188 -16.46875 34.984375 -16.46875 L 10.296875 -16.46875 L 10.296875 0 L 2.0625 0 L 2.0625 -41.15625 Z M 10.296875 -24.703125 L 34.984375 -24.703125 L 34.984375 -32.9375 L 10.296875 -32.9375 Z M 10.296875 -24.703125 "/></g></g></g><g fill="#000000" fill-opacity="1"><g transform="translate(96.113387, 142.710755)"><g><path d="M 43.21875 -41.15625 L 43.21875 -32.9375 L 10.296875 -32.9375 L 10.296875 -24.703125 L 43.21875 -24.703125 L 43.21875 -16.46875 L 10.296875 -16.46875 L 10.296875 -8.234375 L 43.21875 -8.234375 L 43.21875 0 L 10.296875 0 C 8.785156 0 7.398438 -0.367188 6.140625 -1.109375 C 4.890625 -1.847656 3.894531 -2.84375 3.15625 -4.09375 C 2.425781 -5.34375 2.0625 -6.722656 2.0625 -8.234375 L 2.0625 -32.9375 C 2.0625 -34.4375 2.425781 -35.8125 3.15625 -37.0625 C 3.894531 -38.320312 4.890625 -39.316406 6.140625 -40.046875 C 7.398438 -40.785156 8.785156 -41.15625 10.296875 -41.15625 Z M 43.21875 -41.15625 "/></g></g></g><g fill="#000000" fill-opacity="1"><g transform="translate(141.395041, 142.710755)"><g><path d="M 43.21875 -32.9375 L 43.21875 -24.703125 C 43.21875 -23.191406 42.847656 -21.804688 42.109375 -20.546875 C 41.378906 -19.296875 40.382812 -18.300781 39.125 -17.5625 C 37.875 -16.832031 36.492188 -16.46875 34.984375 -16.46875 L 26.75 -16.46875 L 34.984375 -8.234375 L 43.21875 -8.234375 L 43.21875 0 L 33.34375 0 C 32.175781 0 31.179688 -0.410156 30.359375 -1.234375 L 15.125 -16.46875 L 10.296875 -16.46875 L 10.296875 0 L 2.0625 0 L 2.0625 -41.15625 L 34.984375 -41.15625 C 36.492188 -41.15625 37.875 -40.785156 39.125 -40.046875 C 40.382812 -39.316406 41.378906 -38.320312 42.109375 -37.0625 C 42.847656 -35.8125 43.21875 -34.4375 43.21875 -32.9375 Z M 34.984375 -32.9375 L 10.296875 -32.9375 L 10.296875 -24.703125 L 34.984375 -24.703125 Z M 34.984375 -32.9375 "/></g></g></g><g fill="#000000" fill-opacity="1"><g transform="translate(186.676694, 142.710755)"><g><path d="M 10.296875 -41.15625 L 34.984375 -41.15625 C 36.492188 -41.15625 37.875 -40.785156 39.125 -40.046875 C 40.382812 -39.316406 41.378906 -38.320312 42.109375 -37.0625 C 42.847656 -35.8125 43.21875 -34.4375 43.21875 -32.9375 L 43.21875 0 L 34.984375 0 L 34.984375 -16.46875 L 10.296875 -16.46875 L 10.296875 0 L 2.0625 0 L 2.0625 -32.9375 C 2.0625 -34.4375 2.425781 -35.8125 3.15625 -37.0625 C 3.894531 -38.320312 4.890625 -39.316406 6.140625 -40.046875 C 7.398438 -40.785156 8.785156 -41.15625 10.296875 -41.15625 Z M 10.296875 -32.9375 L 10.296875 -24.703125 L 34.984375 -24.703125 L 34.984375 -32.9375 Z M 10.296875 -32.9375 "/></g></g></g><g fill="#000000" fill-opacity="1"><g transform="translate(231.958348, 142.710755)"><g><path d="M 43.21875 -41.15625 L 43.21875 -32.9375 L 26.75 -32.9375 L 26.75 0 L 18.515625 0 L 18.515625 -32.9375 L 2.0625 -32.9375 L 2.0625 -41.15625 Z M 43.21875 -41.15625 "/></g></g></g><g fill="#000000" fill-opacity="1"><g transform="translate(277.240001, 142.710755)"><g><path d="M 34.984375 0 L 10.296875 0 C 8.785156 0 7.398438 -0.367188 6.140625 -1.109375 C 4.890625 -1.847656 3.894531 -2.84375 3.15625 -4.09375 C 2.425781 -5.34375 2.0625 -6.722656 2.0625 -8.234375 L 2.0625 -32.9375 C 2.0625 -34.4375 2.425781 -35.8125 3.15625 -37.0625 C 3.894531 -38.320312 4.890625 -39.316406 6.140625 -40.046875 C 7.398438 -40.785156 8.785156 -41.15625 10.296875 -41.15625 L 34.984375 -41.15625 C 36.492188 -41.15625 37.875 -40.785156 39.125 -40.046875 C 40.382812 -39.316406 41.378906 -38.320312 42.109375 -37.0625 C 42.847656 -35.8125 43.21875 -34.4375 43.21875 -32.9375 L 43.21875 -8.234375 C 43.21875 -6.753906 42.847656 -5.390625 42.109375 -4.140625 C 41.378906 -2.890625 40.394531 -1.882812 39.15625 -1.125 C 37.914062 -0.375 36.523438 0 34.984375 0 Z M 10.296875 -32.9375 L 10.296875 -8.234375 L 34.984375 -8.234375 L 34.984375 -32.9375 Z M 10.296875 -32.9375 "/></g></g></g><g fill="#000000" fill-opacity="1"><g transform="translate(322.521654, 142.710755)"><g><path d="M 43.21875 -32.9375 L 43.21875 -24.703125 C 43.21875 -23.191406 42.847656 -21.804688 42.109375 -20.546875 C 41.378906 -19.296875 40.382812 -18.300781 39.125 -17.5625 C 37.875 -16.832031 36.492188 -16.46875 34.984375 -16.46875 L 26.75 -16.46875 L 34.984375 -8.234375 L 43.21875 -8.234375 L 43.21875 0 L 33.34375 0 C 32.175781 0 31.179688 -0.410156 30.359375 -1.234375 L 15.125 -16.46875 L 10.296875 -16.46875 L 10.296875 0 L 2.0625 0 L 2.0625 -41.15625 L 34.984375 -41.15625 C 36.492188 -41.15625 37.875 -40.785156 39.125 -40.046875 C 40.382812 -39.316406 41.378906 -38.320312 42.109375 -37.0625 C 42.847656 -35.8125 43.21875 -34.4375 43.21875 -32.9375 Z M 34.984375 -32.9375 L 10.296875 -32.9375 L 10.296875 -24.703125 L 34.984375 -24.703125 Z M 34.984375 -32.9375 "/></g></g></g><g clip-path="url(#8b9daaa756)"><path fill="#939598" d="M 246.105469 57.824219 L 363.675781 57.824219 L 363.675781 71.332031 L 246.105469 71.332031 Z M 246.105469 57.824219 " fill-opacity="1" fill-rule="nonzero"/><path fill="#020202" d="M 246.105469 57.824219 L 363.675781 57.824219 L 363.675781 71.332031 L 246.105469 71.332031 Z M 246.105469 57.824219 " fill-opacity="1" fill-rule="nonzero"/></g></svg>